<svg xmlns="http://www.w3.org/2000/svg" viewBox="0 0 287.88 164.58"><defs><style>.cls-1{fill:#F7EED4;}</style></defs><title>sweet-life-wa-logo-wht</title><g id="Layer_6" data-name="Layer 6"><polygon class="cls-1" points="79.91 110.08 79.74 114.6 79.72 114.61 78.07 110.39 76.38 110.67 77.65 118.15 78.77 117.97 77.78 112.12 77.8 112.12 79.95 117.77 80.57 117.66 80.74 111.62 80.76 111.62 81.75 117.46 82.87 117.27 81.6 109.79 79.91 110.08"/><path class="cls-1" d="M84.09,109.39l-.19,7.71,1.24-.2,0-1.7,1.41-.22.49,1.62,1.24-.2-2.57-7.27Zm1,4.67v-3.3h0l1,3.14Z"/><polygon class="cls-1" points="92.09 108.16 90.81 108.36 89.88 111.33 89.86 111.34 89.44 108.57 88.15 108.76 89.28 116.25 90.57 116.06 90.17 113.4 90.5 112.5 90.52 112.5 92.1 115.83 93.4 115.63 91.12 111.17 92.09 108.16"/><polygon class="cls-1" points="95.5 114.18 95.18 111.98 96.85 111.74 96.68 110.62 95.02 110.86 94.75 108.92 96.91 108.61 96.75 107.49 93.29 107.99 94.37 115.49 97.97 114.97 97.81 113.85 95.5 114.18"/><polygon class="cls-1" points="102.93 106.66 102.44 109.63 102.42 109.64 101.14 106.89 99.83 107.06 101.97 111.25 102.38 114.37 103.67 114.2 103.26 111.08 104.24 106.48 102.93 106.66"/><path class="cls-1" d="M109.35,107.71a2,2,0,0,0-4,.48l.47,3.88a2,2,0,0,0,4-.48Zm-1.41,4.92c-.52.06-.72-.19-.79-.75l-.46-3.81c-.07-.56.07-.85.59-.92s.72.19.79.75l.46,3.81C108.59,112.28,108.46,112.57,107.94,112.63Z"/><path class="cls-1" d="M114.5,105.28l-1.29.14.63,5.69c.06.55-.13.85-.6.9s-.72-.2-.78-.75l-.63-5.69-1.29.14.62,5.64a2,2,0,1,0,4-.44Z"/><path class="cls-1" d="M120.16,107c-.16-1.61-1-2.15-2.42-2l-1.82.18.75,7.55,1.3-.13-.31-3.09a6.12,6.12,0,0,0,.67-.1l1.23,3,1.32-.13-1.44-3.31C119.86,108.7,120.29,108.16,120.16,107ZM118,108.34l-.46,0-.23-2.32.46,0c.7-.07,1,.17,1.08,1.06S118.72,108.27,118,108.34Z"/><path class="cls-1" d="M127.82,106.36c-.12-1.55-.89-2.23-2.23-2.12l-1.93.15.59,7.56,1.93-.15c1.34-.11,2-.89,1.87-2.44Zm-1.9,4.38-.45,0-.43-5.42.45,0c.69-.05,1,.19,1,1l.26,3.31C126.84,110.41,126.62,110.69,125.92,110.75Z"/><path class="cls-1" d="M130,103.91l-.91,7.66,1.26-.08.12-1.69,1.43-.09.34,1.66,1.26-.08-1.88-7.48Zm.59,4.74.3-3.28h0l.72,3.22Z"/><polygon class="cls-1" points="136.45 103.57 135.72 106.49 135.69 106.49 134.65 103.65 133.33 103.71 135.1 108.06 135.25 111.21 136.55 111.15 136.41 108 137.77 103.5 136.45 103.57"/><path class="cls-1" d="M141.94,103.38l-1.28,7.6,1.26,0,.2-1.68,1.43,0,.26,1.68,1.26,0-1.52-7.56Zm.36,4.76.46-3.26h0l.57,3.25Z"/><polygon class="cls-1" points="149.56 103.4 148.26 103.37 148.06 110.95 151.41 111.03 151.44 109.9 149.4 109.85 149.56 103.4"/><rect class="cls-1" x="149.41" y="106.67" width="7.58" height="1.3" transform="matrix(0.05, -1, 1, 0.05, 39.09, 255.54)"/><polygon class="cls-1" points="155.03 104.74 156.29 104.82 155.89 111.26 157.19 111.33 157.59 104.9 158.84 104.98 158.91 103.84 155.1 103.61 155.03 104.74"/><polygon class="cls-1" points="159.6 105.03 160.85 105.13 160.34 111.56 161.64 111.67 162.15 105.24 163.41 105.34 163.5 104.21 159.69 103.9 159.6 105.03"/><polygon class="cls-1" points="165.77 104.42 164.48 104.3 163.75 111.85 167.09 112.17 167.19 111.04 165.16 110.84 165.77 104.42"/><polygon class="cls-1" points="167.96 112.26 171.57 112.66 171.7 111.53 169.38 111.28 169.62 109.06 171.29 109.25 171.42 108.12 169.75 107.94 169.97 105.99 172.14 106.23 172.26 105.11 168.8 104.72 167.96 112.26"/><path class="cls-1" d="M177,106.75c.29,0,.61.27.58.92l1.25,0a1.82,1.82,0,0,0-1.55-2.05,1.78,1.78,0,0,0-2.24,1.61c-.28,2.15,2.29,2.89,2.1,4.38a.67.67,0,0,1-.84.59c-.42-.05-.67-.47-.62-1.24l-1.25,0a2,2,0,0,0,1.66,2.33,1.85,1.85,0,0,0,2.29-1.66c.27-2-2.28-3-2.11-4.28C176.37,106.93,176.63,106.69,177,106.75Z"/><polygon class="cls-1" points="185.3 106.87 183.88 111.54 183.86 111.54 183.69 106.63 182.63 106.48 181.09 111.13 181.06 111.13 180.97 106.23 179.77 106.06 180.09 113.77 181.17 113.93 182.77 109.1 182.8 109.1 183 114.19 184.08 114.35 186.5 107.05 185.3 106.87"/><polygon class="cls-1" points="190.8 108.89 190.98 107.77 187.54 107.22 186.34 114.7 189.92 115.28 190.1 114.16 187.8 113.79 188.16 111.59 189.81 111.86 189.99 110.74 188.34 110.47 188.64 108.55 190.8 108.89"/><polygon class="cls-1" points="190.92 115.44 194.5 116.06 194.69 114.94 192.39 114.55 192.77 112.35 194.43 112.64 194.62 111.52 192.96 111.24 193.29 109.31 195.44 109.68 195.63 108.56 192.2 107.98 190.92 115.44"/><polygon class="cls-1" points="200.31 109.41 196.55 108.72 196.34 109.84 197.58 110.06 196.43 116.41 197.71 116.64 198.86 110.3 200.1 110.52 200.31 109.41"/><polygon class="cls-1" points="201.73 113.97 203.38 114.28 203.59 113.17 201.94 112.86 202.31 110.94 204.45 111.35 204.67 110.23 201.24 109.58 199.82 117.03 203.39 117.71 203.6 116.59 201.31 116.16 201.73 113.97"/><path class="cls-1" d="M207.68,110.84l-1.79-.36-1.5,7.42,1.28.26.62-3a6.1,6.1,0,0,0,.66.1l.28,3.26,1.3.26-.4-3.58c.47-.11,1-.5,1.27-1.69A1.92,1.92,0,0,0,207.68,110.84Zm.44,2.37c-.18.88-.49,1.09-1.18,1l-.45-.09.46-2.28.45.09C208.1,112,208.3,112.33,208.12,113.21Z"/><path class="cls-1" d="M114.15,155.78c0-.58.29-.92.81-.92.36,0,.79.23.86,1l1.54-.17a2.25,2.25,0,0,0-2.24-2.28,2.2,2.2,0,0,0-2.5,2.34c0,2.69,3.28,3.18,3.28,5a.83.83,0,0,1-.94.86c-.52,0-.9-.47-1-1.42l-1.54.22a2.47,2.47,0,0,0,2.42,2.6,2.3,2.3,0,0,0,2.55-2.41C117.42,158.15,114.15,157.38,114.15,155.78Z"/><polygon class="cls-1" points="120.1 158.81 122.18 158.81 122.18 157.41 120.1 157.41 120.1 154.99 122.81 154.99 122.81 153.58 118.49 153.58 118.49 162.97 122.99 162.97 122.99 161.56 120.1 161.56 120.1 158.81"/><path class="cls-1" d="M125.5,153.58,123.77,163h1.56l.29-2.08h1.77l.29,2.08h1.56l-1.73-9.39Zm.35,5.9.64-4h0l.64,4Z"/><path class="cls-1" d="M133.93,158a2,2,0,0,0,1.12-2,2.2,2.2,0,0,0-2.5-2.48h-2.39V163h2.55c1.83,0,2.52-1.17,2.52-2.72A2.15,2.15,0,0,0,133.93,158Zm-2.16-3.12h.61c.71,0,1.05.46,1.05,1.33a1.06,1.06,0,0,1-1.08,1.2h-.59Zm.68,6.73h-.68v-2.89h.52c1,0,1.33.48,1.33,1.44S133.31,161.64,132.45,161.64Z"/><path class="cls-1" d="M141.4,156.35c0-2-.92-2.77-2.73-2.77h-2.26V163H138v-3.85a8,8,0,0,0,.83,0L140,163h1.64l-1.36-4.25C140.82,158.47,141.4,157.86,141.4,156.35Zm-2.81,1.44H138v-2.89h.57c.87,0,1.2.33,1.2,1.44S139.47,157.8,138.59,157.8Z"/><path class="cls-1" d="M145.09,153.45a2.25,2.25,0,0,0-2.47,2.41v4.84a2.47,2.47,0,0,0,4.94,0v-4.84A2.26,2.26,0,0,0,145.09,153.45Zm.86,7.2c0,.7-.21,1-.86,1s-.86-.34-.86-1V155.9c0-.7.21-1,.86-1s.86.34.86,1Z"/><path class="cls-1" d="M151.27,153.45a2.26,2.26,0,0,0-2.47,2.41v4.84a2.47,2.47,0,0,0,4.94,0v-4.84A2.25,2.25,0,0,0,151.27,153.45Zm.86,7.2c0,.7-.21,1-.86,1s-.86-.34-.86-1V155.9c0-.7.21-1,.86-1s.86.34.86,1Z"/><polygon class="cls-1" points="159.91 153.58 158.29 153.58 156.6 157.06 156.58 157.06 156.58 153.58 154.96 153.58 154.96 162.97 156.58 162.97 156.58 159.64 157.15 158.6 157.18 158.6 158.49 162.97 160.13 162.97 158.16 157.08 159.91 153.58"/><polygon class="cls-1" points="160.88 162.97 161.47 162.97 160.83 164.58 161.52 164.58 162.41 162.97 162.41 161.44 160.88 161.44 160.88 162.97"/><polygon class="cls-1" points="169.39 153.58 168.49 159.56 168.46 159.56 167.37 153.58 166.04 153.58 164.99 159.56 164.97 159.56 163.98 153.58 162.47 153.58 164.25 162.97 165.6 162.97 166.69 156.77 166.72 156.77 167.89 162.97 169.24 162.97 170.89 153.58 169.39 153.58"/><path class="cls-1" d="M172.54,153.58,170.81,163h1.56l.29-2.08h1.77l.29,2.08h1.56l-1.73-9.39Zm.35,5.9.64-4h0l.64,4Z"/><path class="cls-1" d="M55,65.79a1,1,0,0,0-.23-.17.85.85,0,0,1-.22-.17q-1.13-1.13-2.26-2.2T50.17,61l-1.3-1.3q-.62-.62-1.3-1.19a.83.83,0,0,1-.34-.28A1.88,1.88,0,0,0,47,58a45.45,45.45,0,0,1-5.31-5.54,11.14,11.14,0,0,1-2.37-7.23q0-4.52,2.77-6.61a10.14,10.14,0,0,1,6.27-2.09H49a2,2,0,0,1,.62.11,13.57,13.57,0,0,1,5.2,1.53,10,10,0,0,1,4,3.67V52.12H62V34.83H58.76V37A15.72,15.72,0,0,0,54,34.21,21,21,0,0,0,48.59,33H47.35A17.73,17.73,0,0,0,36.5,36.63q-4.86,3.62-4.86,10.62a17.33,17.33,0,0,0,4.07,11.58,77.42,77.42,0,0,0,9.15,9.1,1.56,1.56,0,0,1,.4.28l.28.28A93.67,93.67,0,0,1,54.24,77a15.07,15.07,0,0,1,4,10.4q0,6.22-4.07,8.87A16.38,16.38,0,0,1,45,98.9a23,23,0,0,1-4.86-.51,20.57,20.57,0,0,1-4.52-1.53,12.91,12.91,0,0,1-5.14-4.58A14.14,14.14,0,0,1,28,85.68v-1a10.68,10.68,0,0,1,.51-3.28,8.72,8.72,0,0,1,1.64-2.94,8,8,0,0,1,2-1.64,5.47,5.47,0,0,1,2.2-.73A1,1,0,0,1,34.8,76h.45a5.24,5.24,0,0,1,3.39,1.19,4.31,4.31,0,0,1,1.47,3.56v.45a4.62,4.62,0,0,0-.57-.68,3,3,0,0,0-.79-.56,6.52,6.52,0,0,0-1.58-.85,4.71,4.71,0,0,0-1.58-.28,3.64,3.64,0,0,0-2.6,1,3.2,3.2,0,0,0-1,2.43,4.16,4.16,0,0,0,.56,2,6.12,6.12,0,0,0,1.81,1.92,4.06,4.06,0,0,0,.85.51L36,87a4,4,0,0,0,.73.17,5.76,5.76,0,0,0,.85.06,4.86,4.86,0,0,0,4.07-1.86,7,7,0,0,0,1.69-4.69v-.57a2.16,2.16,0,0,0-.11-.68,7.31,7.31,0,0,0-2.88-5,9.23,9.23,0,0,0-5-1.75,9.8,9.8,0,0,0-4.12.9,10,10,0,0,0-3.56,2.82,12.23,12.23,0,0,0-2.15,3.84,13.51,13.51,0,0,0-.68,4.29v1A16.86,16.86,0,0,0,27.68,94a15.36,15.36,0,0,0,6.55,5.82,20.4,20.4,0,0,0,5.25,1.64,33.43,33.43,0,0,0,5.82.51h1.24a27.13,27.13,0,0,0,13.73-4.12q6.27-3.9,6.27-11.92a17.75,17.75,0,0,0-3.62-11.36A90.82,90.82,0,0,0,55,65.79Z"/><path class="cls-1" d="M101.38,72.71a8.16,8.16,0,0,0-1.7-1.49,3.87,3.87,0,0,0-2.15-.61,3,3,0,0,0-2.26,1.16,3.88,3.88,0,0,0-.83,2.48v.55a.84.84,0,0,0,.06.28.89.89,0,0,1,.05.27.22.22,0,0,0,.05.17.23.23,0,0,1,.06.17,5.53,5.53,0,0,0,1.71,2.42,4.59,4.59,0,0,0,2.7,1.21,1.76,1.76,0,0,0,.44-.05l.55-.16a.74.74,0,0,0,.44-.17,2.67,2.67,0,0,1,.44-.28,20,20,0,0,1,.55,2.42,16.06,16.06,0,0,1,.22,2.64,11.36,11.36,0,0,1-.5,4A6.94,6.94,0,0,1,99.08,91a6.6,6.6,0,0,1-1.87,1.1,8.79,8.79,0,0,1-2.64.55h-.33a2.69,2.69,0,0,1-2-.66,2.52,2.52,0,0,1-.66-1.87V71.17H83.88V86.69a4.51,4.51,0,0,1-.44,1.71,7,7,0,0,1-.88,1.16l-.88.88a11.55,11.55,0,0,1-1,.88l-1,.61a1.94,1.94,0,0,1-.94.28.84.84,0,0,0-.33.11h-.44a2.49,2.49,0,0,1-1.37-.38A1.28,1.28,0,0,1,76,90.76V71.17h-7.6V89.11a6,6,0,0,0,2.42,5,8.45,8.45,0,0,0,5.28,1.87,10.56,10.56,0,0,0,5-1.27,13.46,13.46,0,0,0,4-3,7.38,7.38,0,0,0,3.52,3.25,11.86,11.86,0,0,0,5,1,13.13,13.13,0,0,0,4.18-.66,10.18,10.18,0,0,0,3.41-1.87,9.64,9.64,0,0,0,3-4.35,16.47,16.47,0,0,0,.88-5.34v-.88a19.17,19.17,0,0,0-1-5.56A14.64,14.64,0,0,0,101.38,72.71Z"/><path class="cls-1" d="M163.93,90.87c-.26.51-1.27,1.71-1.71,1a.54.54,0,0,1-.11-.28V74.36h5.06V71.17h-5.06V52.67h-7.6V71.17h-3.08v3.19h3.08v15A6.19,6.19,0,0,0,156.44,94a6.51,6.51,0,0,0,9.14,0,6.19,6.19,0,0,0,1.93-4.62h-3.19A3.43,3.43,0,0,1,163.93,90.87Z"/><path class="cls-1" d="M240,102.35c-19.62,0-29.57-7.34-38.64-11.54-1.92-.89-3.82-1.78-5.72-2.59a23.88,23.88,0,0,0,2.7-6.38,28.72,28.72,0,0,0,.94-7.37V46.84a19.76,19.76,0,0,1,.11-2.09A17.91,17.91,0,0,1,202,37.1q2.15-3.47,6.88-3.58H209a8.62,8.62,0,0,1,.94.05,7.45,7.45,0,0,1,.93.16,11,11,0,0,1,5,2.7,7.29,7.29,0,0,1,2.31,4.9,3.79,3.79,0,0,1-.22,1.54,9.94,9.94,0,0,0-1.32-1.6,6.24,6.24,0,0,0-1.65-.94,2,2,0,0,0-.55-.17,4.05,4.05,0,0,0-.66-.05,3.88,3.88,0,0,0-2.48.83,4.45,4.45,0,0,0-1.21,3c0,.51.19,4.57,5.34,4.57a5.24,5.24,0,0,0,4-1.87,6.76,6.76,0,0,0,1.82-4.73,10,10,0,0,0-4.13-8.53,15,15,0,0,0-9.08-3,13.49,13.49,0,0,0-11.28,5.34A26.25,26.25,0,0,0,191.5,47.5a21.25,21.25,0,0,0-.33,2.31q-.11,1.21-.11,2.31v26.2a37.49,37.49,0,0,1-.22,4.18,17.86,17.86,0,0,1-.77,3.63,39.82,39.82,0,0,0-4.57-1.38,18,18,0,0,0-4-.5h-.55a7.08,7.08,0,0,0-5.56,2.31,7.86,7.86,0,0,0-1.93,4.73,6.36,6.36,0,0,0,1.82,4.4,6.88,6.88,0,0,0,5.34,2,17.18,17.18,0,0,0,12.88-6.38c2,1,4,2,6.16,3.08,17,8.54,23,13.54,40.41,13.54,15.72,0,24.62-11.73,24.62-11.73l-2.6-2S255.77,102.35,240,102.35ZM185.5,93a8.17,8.17,0,0,1-5,1.6,4.09,4.09,0,0,1-2.75-.94,3,3,0,0,1-1.1-2.37v-.39a.88.88,0,0,1,.11-.38,1.21,1.21,0,0,1,.05-.39,3.34,3.34,0,0,1,.16-.38A3.17,3.17,0,0,1,178.79,88a7.63,7.63,0,0,1,2.81-.5,8.67,8.67,0,0,1,.94.05,8.17,8.17,0,0,0,.94.06q1,.22,1.93.38a7.79,7.79,0,0,1,1.71.5,8.9,8.9,0,0,1,1,.28L189,89A12.23,12.23,0,0,1,185.5,93Z"/><path class="cls-1" d="M217.8,95.82A6.32,6.32,0,0,0,222.37,94a6.19,6.19,0,0,0,1.93-4.62h-3.19a3.08,3.08,0,0,1-.39,1.49,3.64,3.64,0,0,1-.89,1.23.78.78,0,0,1-.37.15.56.56,0,0,1-.55-.55V71.19h-7.48V89.33A6.28,6.28,0,0,0,213.29,94,6.14,6.14,0,0,0,217.8,95.82Z"/><path class="cls-1" d="M215.16,65.49A4.89,4.89,0,0,0,220,60.65a4.8,4.8,0,0,0-1.43-3.52,4.67,4.67,0,0,0-3.41-1.43,4.61,4.61,0,0,0-3.47,1.43,4.89,4.89,0,0,0-1.38,3.52,4.75,4.75,0,0,0,1.38,3.41A4.6,4.6,0,0,0,215.16,65.49Z"/><path class="cls-1" d="M239.82,76a11.88,11.88,0,0,0-.31,14.84c3.76,4.76,10.39,6.58,15.76,3.82A18.46,18.46,0,0,0,260,91l-2.35-2a14.27,14.27,0,0,1-3,2.43c-1.32.94-3.75,1.84-5.31,1-2.61-1.43-2.78-4.83-2.78-4.83S256.44,84.85,258,80a7.1,7.1,0,0,0,.17-4,6.59,6.59,0,0,0-4.79-4.32A12.83,12.83,0,0,0,239.82,76Zm8.4.07c1.37-1.79,4.52-1.76,5.84-.73,1.72,1.51,1.13,4.21-.43,5.62-2.08,1.88-7.6,3.4-7.6,3.4S245.81,79.22,248.22,76.07Z"/><path class="cls-1" d="M274.05,28.06c-1.77-.51-9.31-2.13-40-7.14-13.94-2.28-27.22-4.36-32.27-5.15l-.45-.08L201,16A77,77,0,0,1,187.32,28c-8.23,5.66-24.13,13.67-43.06,13.67A79.29,79.29,0,0,1,100.56,28,77.72,77.72,0,0,1,86.91,16.05l-.31-.34-.45.06c-5.07.81-18.35,2.89-32.28,5.16-30.75,5-38.28,6.62-40,7.15a15.44,15.44,0,0,0-7.41,4.31A8.5,8.5,0,0,0,5,38.1c.25,2,6.75,53.26,7.54,59.1,1.07,7.76,6.37,14,16.28,19.19S53.93,125,78.48,127.64h.15l.11,0c2.21-.52,40.92-8.37,65.51-8.37,24.84,0,62.67,7.84,64.87,8.36l.13,0,.14,0c24.54-2.66,39.85-6.14,49.64-11.24s15.2-11.44,16.26-19.2c.8-5.92,7.3-57.09,7.53-59.11a8.45,8.45,0,0,0-1.38-5.69A15.41,15.41,0,0,0,274.05,28.06Zm7.14,9.82c-.23,2-6.73,53.17-7.53,59.09-1,7.19-6,13-15.37,17.94-9.59,5-24.68,8.41-48.92,11-2.4-.54-39.54-8.37-65.11-8.37S80.92,125.42,78.52,126c-24.25-2.65-39.33-6.05-48.9-11.05C20.24,110,15.21,104.16,14.23,97c-.8-5.83-7.29-57-7.54-59.08a6.91,6.91,0,0,1,1-4.43,14,14,0,0,1,6.62-3.79c1.72-.5,9.17-2.09,39.83-7.09C67.67,20.36,80.6,18.33,86,17.5A79.72,79.72,0,0,0,99.63,29.33c9.18,6.33,25.68,14,44.63,14s35.72-8.27,44-14a79.75,79.75,0,0,0,13.67-11.84c5.35.84,18.29,2.87,31.81,5.09,30.66,5,38.11,6.59,39.85,7.1a13.78,13.78,0,0,1,6.61,3.79A6.85,6.85,0,0,1,281.19,37.88Z"/><path class="cls-1" d="M285.26,29.15a20.13,20.13,0,0,0-9.81-5.88c-3.31-1-17-3.42-40.64-7.27-17.59-2.87-34.47-5.5-34.63-5.52l-1-.15a71.08,71.08,0,0,1-23.7,18.27V5.08l-4.85-.78V30.74c-.64.26-1.3.5-2,.75V4L143.94,0,119.07,4V31.25q-1-.37-2-.76V4.3l-4.85.78V28.32a73.56,73.56,0,0,1-23.57-18l-1,.15c-.17,0-17,2.65-34.63,5.52-23.66,3.86-37.34,6.31-40.65,7.27a20.26,20.26,0,0,0-9.8,5.89c-2.56,3-2.8,7.39-2.55,9.52.14,1.15,7.45,58.38,7.56,59.19,1.28,9.48,7.47,17,18.88,23,10.45,5.45,26.53,9.11,52.13,11.86l.29,0,.29-.07s15.64-3,33-5.36v14h4.85V126.65l2-.24v14.91h49.62v-15l2,.24v14.74h4.85V127.2c17.41,2.35,33.11,5.42,33.16,5.44l.27,0,.28,0c25.61-2.74,41.68-6.4,52.13-11.85,11.42-6,17.62-13.47,18.89-23,.08-.62,7.42-58.06,7.54-59.18C288.07,36.55,287.8,32.16,285.26,29.15Zm-.76,9.13c-.24,2-6.75,53.26-7.54,59.13-1.12,8.35-6.74,15-17.14,20.45-10,5.24-25.66,8.78-50.66,11.47-1-.24-15.55-3.69-33.64-6.1-1.59-.21-3.21-.41-4.85-.61l-2-.23a225.17,225.17,0,0,0-24.43-1.49,229.76,229.76,0,0,0-25.19,1.56l-2,.23q-2.46.29-4.85.61c-18,2.41-32.48,5.79-33.52,6-25-2.7-40.63-6.24-50.65-11.47-10.4-5.42-16-12.11-17.15-20.45-.79-5.85-7.29-57.09-7.54-59.13-.2-1.72.1-5,1.77-7a17,17,0,0,1,8.23-4.83c3.12-.91,17-3.41,40.22-7.19,15.22-2.49,29.86-4.78,33.67-5.37a72.85,72.85,0,0,0,14.23,12.67,71.23,71.23,0,0,0,10.74,6c1.54.7,3.16,1.38,4.85,2q1,.37,2,.72a76.65,76.65,0,0,0,25.19,4.4,73.83,73.83,0,0,0,24.43-4.28c.67-.24,1.32-.48,2-.73q2.54-1,4.85-2a73.67,73.67,0,0,0,10.86-6.1A72.34,72.34,0,0,0,200.63,13.9c3.79.6,18.46,2.9,33.65,5.37,23.19,3.78,37.1,6.27,40.24,7.19a17,17,0,0,1,8.22,4.84C284.39,33.29,284.71,36.56,284.5,38.28Z"/><path class="cls-1" d="M123.57,91.42c-1.32.94-3.74,1.84-5.31,1-2.61-1.43-2.78-4.83-2.78-4.83s9.86-2.72,11.43-7.53a7.09,7.09,0,0,0,.17-4,6.59,6.59,0,0,0-4.8-4.32A12.83,12.83,0,0,0,108.73,76a11.88,11.88,0,0,0-.31,14.84c3.76,4.76,10.39,6.58,15.76,3.82A18.43,18.43,0,0,0,128.91,91l-2.35-2A14.19,14.19,0,0,1,123.57,91.42Zm-6.45-15.35c1.37-1.79,4.52-1.76,5.84-.73,1.72,1.51,1.13,4.21-.43,5.62-2.08,1.88-7.61,3.4-7.61,3.4S114.72,79.22,117.12,76.07Z"/><path class="cls-1" d="M146.52,91.42c-1.32.94-3.74,1.84-5.31,1-2.61-1.43-2.78-4.83-2.78-4.83s9.86-2.72,11.42-7.53a7.05,7.05,0,0,0,.17-4,6.59,6.59,0,0,0-4.79-4.32A12.83,12.83,0,0,0,131.67,76a11.88,11.88,0,0,0-.31,14.84c3.76,4.76,10.39,6.58,15.76,3.82A18.48,18.48,0,0,0,151.86,91l-2.35-2A14.27,14.27,0,0,1,146.52,91.42Zm-6.45-15.35c1.37-1.79,4.52-1.76,5.84-.73,1.72,1.51,1.12,4.21-.43,5.62-2.08,1.88-7.6,3.4-7.6,3.4S137.66,79.22,140.07,76.07Z"/><path class="cls-1" d="M226.6,96.15h7.59V74.42h3.74V71.23h-3.85v-21a4,4,0,0,1,2,.32,2.33,2.33,0,0,1,1.06,1.7h3.6S240.24,47,234.3,47A7.92,7.92,0,0,0,229,49.08a7,7,0,0,0-2.42,5.61V71.23H223v3.19h3.63Z"/></g></svg>